# xmcd CD database file
#
# Track frame offsets:
#	150
#	13395
#	22872
#	32985
#	50597
#	60345
#	74575
#	87975
#	99155
#	111115
#	123715
#	136085
#	147222
#	160800
#	172192
#	185215
#	197400
#	207300
#	217867
#	237725
#
# Disc length: 3396 seconds
#
# Revision: 4
# Processed by: cddbd v1.5.1PL2 Copyright (c) Steve Scherf et al.
# Submitted via: CDex 1.51
#
DISCID=270d4214
DTITLE=Various Artist - Country's Greatest Hits CD 2
DYEAR=1900
DGENRE=Country
TTITLE0=Lynn Anderson - Rose Garden
TTITLE1=Merle Travis - 16 Tons
TTITLE2=Johnny Cash - Ballad of a teenage queen
TTITLE3=Skeeter Davis - Always on my mind
TTITLE4=Ned Miller - From a jack to a king
TTITLE5=Billy Jo Spears - Which way you goin' Billy
TTITLE6=Jimmy Dean - Big bad John
TTITLE7=Anne Murray - Last thing on my mind
TTITLE8=Patsy Cline - Walking after midnight
TTITLE9=Gene Autry  - Goodnight Irene
TTITLE10=Kenny Rogers - Ruben James
TTITLE11=Buck Owens - Above and beyond
TTITLE12=Willie Nelson - You'll always have someone
TTITLE13=Dolly Parton - Makin' believe
TTITLE14=Freddy Fender - Silver wings
TTITLE15=Frankie Laine - High noon
TTITLE16=Hank Locklin - Please help me I'm falling
TTITLE17=Carl Belew - Am I that easy to forget
TTITLE18=Bellamy Brothers - If I said you had a beautiful body
TTITLE19=Glen Campbell - Southern nights
EXTD=
EXTT0=
EXTT1=
EXTT2=
EXTT3=
EXTT4=
EXTT5=
EXTT6=
EXTT7=
EXTT8=
EXTT9=
EXTT10=
EXTT11=
EXTT12=
EXTT13=
EXTT14=
EXTT15=
EXTT16=
EXTT17=
EXTT18=
EXTT19=
PLAYORDER=
